<svg xmlns="http://www.w3.org/2000/svg" viewBox="0 0 141.33 87.03"><defs><style>.cls-1,.cls-3{fill:#f05426;}.cls-2{fill:#452312;}.cls-3{stroke:#000;stroke-linecap:round;stroke-linejoin:round;stroke-width:0;}</style></defs><g id="Layer_2" data-name="Layer 2"><g id="Background"><path class="cls-1" d="M103.42,4.29a1.11,1.11,0,0,0-1.3-.89,2.84,2.84,0,0,0-1.48.42,2.84,2.84,0,0,1,1.48-.42A1.11,1.11,0,0,1,103.42,4.29Z"/><path class="cls-2" d="M8.11,41.09A44.61,44.61,0,0,1,7.49,30a13.78,13.78,0,0,1,7,3.81,28.81,28.81,0,0,1,6.6,9.9c1.51,3.52,4,4,6.46,1,1.36-1.66,2.56-3.47,3.79-5.24,3.36-4.87,7.09-9.38,12.15-12.61.75-.48,1.53-.9,2.51-1.48-.91,2.26-1.77,4.23-2.5,6.24C41.23,37.91,39.77,44.35,41,51.1c1.17,6.5,4.62,11.31,11,13.44,6.91,2.29,13.53.75,20.09-1.94-1.17-2.12-2.29-4.13-3.25-5.88-3,.62-5.87,1.41-8.74,1.74-5.95.69-10.39-2.27-11.85-7.74a19.11,19.11,0,0,1-.6-4.26,34,34,0,0,1,2.48-13.1A66,66,0,0,1,57,20.07c1.48-2.29.55-4.36-2.09-4.92a11.5,11.5,0,0,0-6.56.85,38.12,38.12,0,0,0-10.11,6.13A72.64,72.64,0,0,0,25,35.5c-1.36-1.75-2.6-3.57-4.05-5.21-4.31-4.86-9.59-7.74-16.25-7.65-2.37,0-3.64,1.12-4,3.45A52.4,52.4,0,0,0,1.19,46c.7,3,1.74,5.87,2.66,8.9l6.78-3.07C9.76,48.14,8.78,44.64,8.11,41.09Z"/><path class="cls-1" d="M135.64,51.48a118.1,118.1,0,0,1-17.78,13.79A93.08,93.08,0,0,1,73.35,80a82.63,82.63,0,0,1-24.72-2.11C38.1,75.3,28.38,71,20.06,63.94c-1.74-1.49-3.25-3.27-4.9-4.95L9.77,63.34c.19.26.27.4.37.52.36.42.73.85,1.1,1.26A59.61,59.61,0,0,0,30.67,78.89a89.17,89.17,0,0,0,45.46,7.8,96.13,96.13,0,0,0,23.78-5,111.48,111.48,0,0,0,36-21c1.91-1.62,3.75-3.32,5.45-4.84l-4.77-5C136.25,51,135.93,51.21,135.64,51.48Z"/><path class="cls-2" d="M50.33,45c0,.48,0,1,0,1.44.4,4,2.17,7.21,5.92,8.93s7.09.74,10-1.65a24.23,24.23,0,0,0,9.2-20,8.3,8.3,0,0,0-7.08-8.31,9.79,9.79,0,0,0-6.86,1C54.23,30.45,51,37,50.33,45Zm11.59-10.1a14.21,14.21,0,0,1,3.1-2.4,2.3,2.3,0,0,1,3.53,1.7,7.57,7.57,0,0,1-.14,3.07A22.3,22.3,0,0,1,62.5,47.67c-.81.81-1.74,1.78-3,1.4s-1.82-1.7-2.11-3c-.1-.42-.13-.87-.19-1.31A16,16,0,0,1,61.92,34.91Z"/><path class="cls-2" d="M75.06,55.11c.72,2.5,3.5,3,5.28,1.15a8.38,8.38,0,0,0,1.13-1.39c1.53-2.53,3-5.08,4.53-7.61s2.87-4.8,4.39-7.14a13,13,0,0,1,2-2c.2.67.31,1,.39,1.36.56,2.24,1,4.51,1.67,6.74,1.56,5.65,5.31,8.94,11.05,10,1.23.22,2.47.36,3.87.55v-7c-.66-.08-1.36-.16-2.07-.26a6.75,6.75,0,0,1-6-4.79c-.25-.76-.48-1.53-.66-2.3a58.77,58.77,0,0,0-1.56-6.51c-1.55-4.25-5.28-5.75-9.38-3.82a13.24,13.24,0,0,0-3.79,2.66c-1.62,1.67-3,3.6-4.44,5.41-.25-1.12-.53-2.35-.83-3.67a10.76,10.76,0,0,1-1.7.42c-1.14.1-1.4.76-1.59,1.8A25.3,25.3,0,0,1,75.94,44a14.86,14.86,0,0,0-1.3,6A19.91,19.91,0,0,0,75.06,55.11Z"/><path class="cls-2" d="M121.51,27.23l-3.44-6.06c-5,3.07-9.53,6.49-12.76,11.37A13.51,13.51,0,0,0,102.85,41c.36,5.56,4.43,8,9.35,5.38A39.4,39.4,0,0,0,117.39,43c1.91-1.42,3.72-3,5.56-4.49,4.29,4.32,8.13,5.23,11.74,2.78-1-2-1.94-4.09-2.9-6.12-2.14.54-2.35.44-3.48-1.5a23.69,23.69,0,0,0-1.2-2.07,3.28,3.28,0,0,0-4.1-1.34,16.75,16.75,0,0,0-3.94,2.21c-2.12,1.62-4.09,3.45-6.15,5.16-.86.71-1.81,1.33-2.72,2l-.3-.35C111.94,33.56,116.82,30.53,121.51,27.23Z"/><path class="cls-1" d="M87.42,25.52a2.53,2.53,0,0,0,3.82.44,8.88,8.88,0,0,0,2-1.92A22.62,22.62,0,0,0,97.46,7.55a8.65,8.65,0,0,0-5-7C89.9-.65,87.53.07,87.35,3.3a11.35,11.35,0,0,0,.36,3.43c.66,2.49,1.47,4.94,2.25,7.47a1.06,1.06,0,0,1-.33.19C85.23,15.73,84.36,22.05,87.42,25.52Z"/><path class="cls-1" d="M101.57,26.49c5.06-.91,7.43-4.8,5.82-9.8L109,16a25.94,25.94,0,0,0,7.71-4.49c1-1,1.85-2.1,1.4-3.58a3.8,3.8,0,0,0-2.92-2.57A9.66,9.66,0,0,0,106.66,7a22.69,22.69,0,0,0-7.42,10.22,14.07,14.07,0,0,0-1.16,6.53A2.71,2.71,0,0,0,101.57,26.49Z"/><path class="cls-1" d="M101.09,7.88c1.19,0,2.36-1.41,2.39-3a2.5,2.5,0,0,0-.06-.63,1.11,1.11,0,0,0-1.3-.89,2.84,2.84,0,0,0-1.48.42l-.23.18-.16.13a2.35,2.35,0,0,0-.57.79,2.3,2.3,0,0,0-.22,1A1.81,1.81,0,0,0,101.09,7.88Z"/><path class="cls-3" d="M99.68,4.92a2.35,2.35,0,0,1,.57-.79"/><path class="cls-3" d="M100.41,4l.23-.18"/></g></g></svg>